# xmcd
#
# Track frame offsets:
#	182
#	31730
#	73270
#	92467
#	120280
#	134882
#	148165
#	169432
#	192690
#	213092
#	238382
#	259117
#	278440
#
# Disc length: 4073 seconds
#
# Revision: 1
# Processed by: cddbd v1.5.2PL0 Copyright (c) Steve Scherf et al.
# Submitted via: EasyCDDAExtractor 16.0.6.1
#
DISCID=c90fe70d
DTITLE=Mahalia Jackson - Jazz and Blues Collection - Mahalia Jackson - Cd 36
DYEAR=1968
DGENRE=Blues
TTITLE0=Didn't It Rain
TTITLE1=We Shall Overcome
TTITLE2=Rusty Bell
TTITLE3=If I Could Help Somebody
TTITLE4=If I Could Help Somebody
TTITLE5=This Is My Faith
TTITLE6=Elijah Rock
TTITLE7=We Have Come A Mighty Long Way
TTITLE8=How I Got Over
TTITLE9=I Would Rather Have Jesus
TTITLE10=Down By The Riverside
TTITLE11=It's In My Heart
TTITLE12=Come On Children, Let Us Sing
EXTD=
EXTT0=
EXTT1=
EXTT2=
EXTT3=
EXTT4=
EXTT5=
EXTT6=
EXTT7=
EXTT8=
EXTT9=
EXTT10=
EXTT11=
EXTT12=
PLAYORDER=
